<svg width="154" height="34" viewBox="0 0 154 34" fill="none" xmlns="http://www.w3.org/2000/svg">
<path d="M110.197 0C110.53 0.0845843 110.853 0.209648 111.189 0.278524C112.05 0.454943 112.716 0.992657 113.325 1.54548C113.938 2.10192 114.493 2.76228 114.923 3.46796C115.457 4.34401 115.915 5.26356 116.087 6.32207C116.326 7.78538 116.335 9.24748 116.296 10.7168C116.296 11.5016 116.283 12.2871 116.302 13.0719C116.309 13.38 116.352 13.6954 116.436 13.9914C116.551 14.3968 116.827 14.6808 117.224 14.8572C117.48 14.9714 117.738 15.1019 117.958 15.2729C118.695 15.8451 118.592 16.7513 117.742 17.1368C117.303 17.3355 116.892 17.5398 116.609 17.9554C116.376 18.2962 116.279 18.6496 116.285 19.0605C116.306 20.792 116.317 22.5236 116.31 24.2545C116.308 24.6128 116.197 24.9693 116.158 25.3288C116.08 26.0677 116.003 26.8072 115.955 27.5479C115.933 27.8747 116.021 28.1992 116.3 28.4155C116.878 28.8638 117.04 29.5042 117.116 30.173C117.178 30.724 117.166 31.2744 116.984 31.8158C116.906 32.049 116.909 32.3112 116.887 32.5607C116.825 33.2664 116.536 33.5642 115.83 33.6512C114.86 33.7703 113.938 33.5806 113.044 33.2235C112.889 33.1613 112.744 33.0543 112.618 32.9413C112.258 32.6181 111.837 32.4103 111.362 32.3982C110.526 32.377 109.688 32.3668 108.855 32.426C108.196 32.4731 107.547 32.5317 106.898 32.3758C106.79 32.3499 106.678 32.3245 106.569 32.3257C105.72 32.3335 105.012 31.9173 104.301 31.5475C103.923 31.3512 103.602 31.037 103.278 30.7506C102.327 29.9102 101.47 28.9762 100.958 27.8089C100.722 27.27 100.655 26.6459 100.578 26.052C100.514 25.5662 100.537 25.0672 100.539 24.5741C100.546 22.6915 100.556 20.8089 100.572 18.9263C100.576 18.5385 100.435 18.2424 100.161 17.9621C99.7655 17.5573 99.3038 17.2685 98.8058 17.0153C98.443 16.8305 98.2174 16.5151 98.2865 16.1079C98.329 15.8596 98.4667 15.5895 98.6438 15.4107C98.8653 15.1877 99.1528 15.0028 99.4446 14.8814C100.256 14.5437 100.579 13.9377 100.561 13.0942C100.543 12.2792 100.541 11.4636 100.538 10.648C100.532 9.37919 100.51 8.10982 100.537 6.84226C100.549 6.24111 100.634 5.63815 100.736 5.04424C100.784 4.76572 100.921 4.48901 101.07 4.24432C101.426 3.6625 101.821 3.10545 102.184 2.52786C102.555 1.93819 103.113 1.56541 103.663 1.17089C104.476 0.586652 105.376 0.244086 106.36 0.0863968M106.068 16.1242C106.063 16.1242 106.057 16.1242 106.051 16.1242C106.051 18.6104 106.038 21.0965 106.062 23.5827C106.067 24.1301 106.176 24.6823 106.291 25.2212C106.34 25.452 106.492 25.6864 106.659 25.861C106.915 26.1287 107.218 26.354 107.512 26.583C107.855 26.8495 108.264 26.9057 108.627 26.7008C109.553 26.1776 110.243 25.4568 110.317 24.3234C110.352 23.8014 110.385 23.2782 110.385 22.7556C110.389 18.498 110.386 14.2398 110.385 9.98215C110.385 9.53929 110.385 9.09643 110.371 8.65418C110.346 7.81257 110.154 7.03077 109.61 6.34926C109.23 5.87377 108.736 5.64177 108.163 5.66715C107.282 5.70581 106.523 6.37343 106.254 7.209C106.053 7.83613 106.058 8.47232 106.062 9.11939C106.078 11.4539 106.068 13.789 106.068 16.1242Z" fill="#1A1A1A"/>
<path d="M2.00605 24.669C2.00605 22.7562 2.00362 20.8434 2.00726 18.9312C2.00848 18.1143 1.66452 17.6068 0.903199 17.3023C0.718177 17.228 0.530122 17.1374 0.376645 17.0135C-0.0577015 16.6619 -0.111691 16.1925 0.19041 15.726C0.444587 15.3333 0.763067 15.0198 1.21622 14.8723C1.74338 14.7014 1.96359 14.3225 1.97511 13.7969C1.983 13.4247 1.98664 13.052 1.98664 12.6798C1.98603 9.27709 1.983 5.87438 1.98603 2.47168C1.98603 2.19134 2.01272 1.90859 2.05155 1.63006C2.1292 1.08147 2.45495 0.715345 2.98697 0.604177C3.53718 0.489384 4.10317 0.396945 4.66308 0.389091C6.51269 0.362507 8.36413 0.335924 10.2119 0.399362C10.9878 0.425946 11.7564 0.677282 12.5274 0.830742C12.6154 0.848263 12.6967 0.907472 12.7846 0.918951C13.7116 1.03797 14.5166 1.447 15.2427 2.00042C15.6479 2.30915 16.0252 2.66864 16.3552 3.05652C17.1518 3.99238 17.3914 5.12158 17.392 6.31724C17.3932 8.57202 17.4017 10.8274 17.3871 13.0822C17.3823 13.8048 17.3513 14.531 17.2609 15.2463C17.2173 15.5907 17.0456 15.9357 16.866 16.2426C16.5676 16.7525 16.1975 17.2208 15.8954 17.7289C15.7607 17.9554 15.6716 18.2309 15.6431 18.4931C15.5266 19.5504 15.6764 20.5757 16.0428 21.5787C16.2248 22.0765 16.3413 22.5985 16.479 23.1114C16.6143 23.6159 16.7392 24.1228 16.8685 24.6291C17.0978 25.5257 17.2622 26.4447 17.5728 27.3129C17.9501 28.3678 18.1096 29.4589 18.3056 30.5464C18.4069 31.1083 18.2358 31.4919 17.8287 31.6732C17.7026 31.7294 17.5576 31.7668 17.4199 31.7699C16.2181 31.7928 15.0158 31.8273 13.8141 31.814C13.1389 31.8067 12.6506 31.4768 12.4249 30.8026C12.1125 29.8673 11.7764 28.9429 11.6308 27.9569C11.5435 27.3636 11.3251 26.7909 11.1825 26.2042C11.0636 25.7154 10.9848 25.217 10.8598 24.73C10.6505 23.9126 10.4176 23.1006 10.1968 22.2861C10.1391 22.0723 10.1197 21.8433 10.0299 21.6445C9.89101 21.337 9.7527 21.0101 9.5331 20.7624C9.13636 20.3159 8.5085 20.3733 8.13482 20.8379C7.82847 21.2192 7.70533 21.6475 7.66165 22.1424C7.41657 24.9064 7.59856 27.6748 7.5476 30.4401C7.52941 31.4357 7.26734 31.7614 6.27126 31.8079C5.27335 31.8544 4.26999 31.8514 3.27208 31.8091C2.3585 31.7705 1.99634 31.3741 1.98967 30.4685C1.97572 28.5357 1.98542 26.603 1.98542 24.6702C1.9921 24.669 1.99938 24.669 2.00605 24.669ZM7.66954 10.4008C7.67378 10.4008 7.67864 10.4008 7.68288 10.4008C7.68288 10.7132 7.68349 11.025 7.68288 11.3373C7.68228 12.0521 7.66468 12.7674 7.6847 13.4809C7.70108 14.0476 7.92553 14.531 8.45694 14.795C9.28256 15.2052 10.1185 15.1037 10.8525 14.6192C11.666 14.0827 12.0755 13.2368 12.1179 12.2822C12.1738 11.0262 12.1604 9.76526 12.127 8.50797C12.1088 7.82949 11.8025 7.22954 11.2547 6.8181C10.8962 6.54864 10.4752 6.34684 10.0584 6.17043C8.68867 5.59223 7.62222 6.33718 7.66408 7.80351C7.68955 8.66929 7.66954 9.53507 7.66954 10.4008Z" fill="#1A1A1A"/>
<path d="M129.008 12.8792C129.008 16.4631 129.01 20.0477 129.006 23.6316C129.006 24.0963 129.095 24.53 129.345 24.9276C129.419 25.0466 129.5 25.1711 129.534 25.3046C129.733 26.0785 130.36 26.351 131.023 26.5794C131.134 26.6175 131.274 26.6422 131.381 26.609C132.035 26.4054 132.659 26.1329 132.991 25.4846C133.52 24.4539 133.729 23.3694 133.723 22.1949C133.687 16.1743 133.706 10.1531 133.706 4.13255C133.706 3.50844 133.698 2.88433 133.702 2.25961C133.703 2.05902 133.712 1.85602 133.742 1.65785C133.86 0.870011 134.136 0.569737 134.933 0.502673C135.817 0.427756 136.707 0.387276 137.594 0.389089C138.477 0.391505 139.238 1.19324 139.238 2.07775C139.238 5.71246 139.227 9.34717 139.225 12.9813C139.225 13.3021 139.246 13.6247 139.285 13.9437C139.338 14.3787 139.585 14.653 139.995 14.8421C140.344 15.0022 140.698 15.2149 140.958 15.4904C141.528 16.0946 141.349 16.7996 140.607 17.2008C140.258 17.3899 139.924 17.6201 139.62 17.8757C139.302 18.1421 139.199 18.5203 139.202 18.936C139.221 21.0397 139.242 23.1441 139.236 25.2478C139.235 25.6526 139.144 26.0653 139.039 26.4598C138.915 26.925 138.783 27.4023 138.561 27.8246C138.259 28.3992 137.9 28.952 137.505 29.4686C136.979 30.1567 136.395 30.8032 135.639 31.2587C135.366 31.4231 135.085 31.5838 134.79 31.698C134.433 31.8357 134.05 31.904 133.69 32.0345C133.033 32.2725 132.363 32.3692 131.666 32.3245C130.941 32.2786 130.198 32.3438 129.495 32.2018C128.631 32.0272 127.782 31.7372 127.066 31.1687C126.643 30.8328 126.195 30.5271 125.761 30.2044C125.108 29.7193 124.808 28.9641 124.352 28.3309C124.175 28.085 124.138 27.731 124.064 27.4204C123.917 26.8042 123.778 26.1855 123.658 25.5632C123.581 25.1705 123.499 24.7705 123.497 24.3736C123.492 22.5514 123.514 20.7292 123.526 18.907C123.53 18.1862 123.077 17.5398 122.378 17.2902C121.991 17.1525 121.673 16.9471 121.493 16.5634C121.317 16.1906 121.318 15.9272 121.625 15.6602C121.971 15.3599 122.345 15.0693 122.755 14.8729C123.19 14.6639 123.434 14.3697 123.465 13.9117C123.497 13.4308 123.499 12.9468 123.499 12.4641C123.502 9.30246 123.501 6.14142 123.499 2.97978C123.499 2.69824 123.489 2.41609 123.473 2.13515C123.425 1.30743 124.025 0.474277 124.854 0.431985C125.909 0.378214 126.974 0.425339 128.028 0.506298C128.622 0.551611 128.989 1.07422 129.035 1.76419C129.059 2.11461 129.026 2.46805 129.025 2.82028C129.024 6.17284 129.024 9.526 129.024 12.8786C129.018 12.8792 129.013 12.8792 129.008 12.8792Z" fill="#1A1A1A"/>
<path d="M30.375 0.425334C31.2134 0.425334 32.0548 0.38123 32.8889 0.436814C33.8219 0.499044 34.1167 0.787839 34.3321 1.70195C34.6499 3.05228 35.0261 4.3869 35.1207 5.78737C35.1771 6.62536 35.4167 7.45006 35.5666 8.28201C35.6715 8.86564 35.7655 9.45108 35.862 10.0365C36.0325 11.0685 36.1962 12.1016 36.3728 13.1329C36.5232 14.0114 37.0273 14.5932 37.8584 14.9333C38.169 15.0602 38.4547 15.2717 38.715 15.4892C39.1299 15.8354 39.1481 16.3586 38.7532 16.7296C38.5287 16.9398 38.2533 17.1029 37.984 17.2582C37.4872 17.5446 37.2251 17.947 37.3379 18.5004C37.5666 19.6235 37.566 20.7745 37.8675 21.8965C38.1453 22.9278 38.1981 24.0189 38.3589 25.0823C38.4189 25.4792 38.5081 25.8713 38.5785 26.2664C38.7586 27.2857 38.9467 28.3043 39.1081 29.3266C39.1675 29.7024 39.1809 30.089 39.1784 30.4709C39.1736 31.3306 38.849 31.6484 37.9919 31.6889C37.0837 31.7318 36.1768 31.8067 35.2687 31.8236C34.8926 31.8309 34.508 31.7487 34.1392 31.6605C33.8371 31.588 33.6308 31.359 33.555 31.0569C33.4324 30.57 33.3336 30.077 33.2292 29.5858C33.1479 29.2033 33.0727 28.8197 32.9981 28.436C32.9538 28.2095 32.912 27.9823 32.8768 27.7545C32.8052 27.2875 32.7597 26.815 32.6651 26.3528C32.4928 25.51 31.5992 24.7584 30.7378 24.8194C30.1742 24.8593 29.618 25.0514 29.0684 25.2109C28.7875 25.2925 28.6649 25.5541 28.577 25.8242C28.1269 27.2102 27.886 28.6354 27.7465 30.0812C27.7283 30.2715 27.704 30.4624 27.6598 30.6479C27.516 31.2466 27.1405 31.6333 26.5254 31.7173C25.2587 31.8913 23.9866 31.8804 22.7176 31.7276C22.3208 31.6798 22.0478 31.449 21.9386 31.0605C21.7949 30.5506 21.7554 30.0437 21.8938 29.5133C22.0224 29.0203 22.0666 28.5055 22.1558 28.0022C22.3196 27.0821 22.5022 26.1655 22.6526 25.2436C22.8031 24.3204 22.902 23.3888 23.0646 22.468C23.2587 21.3684 23.5001 20.2773 23.7124 19.1807C23.7579 18.9451 23.7895 18.7016 23.7852 18.4623C23.7761 17.9264 23.5511 17.512 23.0348 17.289C22.9517 17.2534 22.871 17.2099 22.7904 17.1682C21.9641 16.7447 21.8404 15.9979 22.5192 15.3641C22.7497 15.149 23.0506 15.0077 23.3224 14.8379C23.5856 14.673 23.8617 14.528 24.1158 14.3503C24.458 14.1111 24.6042 13.7613 24.6745 13.3528C24.8122 12.5511 24.9845 11.7554 25.1416 10.9573C25.1902 10.7108 25.2405 10.4637 25.2787 10.2154C25.4547 9.07166 25.5384 7.90561 25.8217 6.78909C26.1808 5.37291 26.1808 3.91323 26.4969 2.50309C26.6297 1.911 26.9536 1.35153 27.2503 0.808985C27.4195 0.499044 27.7932 0.430772 28.1329 0.42473C28.8803 0.410834 29.6283 0.420501 30.3756 0.420501C30.375 0.421709 30.375 0.423522 30.375 0.425334ZM29.4875 18.1022C29.5112 18.295 29.5251 18.527 29.5694 18.7529C29.6683 19.2641 29.9322 19.4961 30.4527 19.5529C31.3717 19.6538 31.8073 19.2236 31.7151 18.3052C31.7078 18.2352 31.6981 18.1651 31.6854 18.0962C31.5246 17.2479 31.3681 16.3985 31.1988 15.552C31.16 15.3575 31.1066 15.1551 31.0084 14.9859C30.8355 14.6881 30.4976 14.6627 30.2768 14.9291C30.1651 15.0639 30.0766 15.2372 30.0353 15.407C29.8545 16.1592 29.692 16.9162 29.5288 17.6727C29.5009 17.8002 29.5027 17.9331 29.4875 18.1022Z" fill="#1A1A1A"/>
<path d="M87.8446 0.378212C88.4513 0.378212 89.0579 0.371566 89.6639 0.381233C89.926 0.385462 90.1899 0.404795 90.4483 0.446483C91.1944 0.566714 91.5542 0.929822 91.7277 1.66571C92.142 3.42143 92.4677 5.18864 92.6625 6.98485C92.7595 7.88084 93.0246 8.75749 93.1811 9.64804C93.2891 10.2619 93.3182 10.8896 93.4238 11.5041C93.5378 12.1674 93.6725 12.8296 93.849 13.4785C94.0238 14.1213 94.4108 14.6156 95.075 14.8337C95.5421 14.9865 95.854 15.3261 96.147 15.6892C96.3611 15.9544 96.406 16.2686 96.184 16.5229C95.9443 16.7972 95.6653 17.0691 95.348 17.2371C94.91 17.4691 94.7135 17.7996 94.7444 18.2575C94.7911 18.9499 94.8706 19.6405 94.9525 20.3298C95.0156 20.8591 95.0963 21.3871 95.1836 21.9134C95.2279 22.1804 95.3068 22.442 95.3626 22.7079C95.4615 23.1785 95.5731 23.6479 95.6477 24.1228C95.8194 25.2158 95.8867 26.3323 96.1567 27.3999C96.4218 28.4493 96.5382 29.4927 96.534 30.5627C96.5334 30.663 96.5267 30.7639 96.5146 30.8642C96.4484 31.4061 96.2234 31.6394 95.6768 31.6756C94.7396 31.7378 93.8017 31.794 92.8633 31.8224C92.4726 31.8345 92.0783 31.7771 91.6876 31.7342C91.243 31.6859 90.9651 31.4309 90.8832 30.9941C90.6491 29.7483 90.4228 28.5007 90.1977 27.2531C90.162 27.0555 90.1395 26.8543 90.1237 26.6537C90.0321 25.5003 88.8516 24.5651 87.5292 24.8309C87.2429 24.8883 86.962 24.9777 86.6841 25.069C86.359 25.1759 86.1236 25.3952 86.009 25.7172C85.6499 26.725 85.3884 27.7551 85.2665 28.8209C85.1943 29.4486 85.116 30.0788 84.9765 30.6938C84.8267 31.3536 84.3814 31.7469 83.6807 31.7529C82.5215 31.7626 81.3604 31.7765 80.2029 31.7264C79.4992 31.6955 79.1935 31.3216 79.2602 30.6262C79.3749 29.4257 79.5144 28.2264 79.6915 27.0337C79.8195 26.1698 80.0476 25.3203 80.1896 24.4581C80.3382 23.5549 80.4165 22.6402 80.5663 21.7369C80.6779 21.0645 80.8417 20.3993 81.0073 19.7371C81.1323 19.2363 81.256 18.7415 81.1717 18.2188C81.1044 17.8014 80.903 17.4884 80.5099 17.3071C80.3449 17.231 80.1811 17.1513 80.0228 17.0625C79.4434 16.7362 79.2815 16.0493 79.7213 15.5496C79.9663 15.2711 80.3139 15.0784 80.627 14.8639C80.8417 14.7171 81.0862 14.6137 81.3015 14.4675C81.8432 14.1002 82.038 13.574 82.1168 12.9299C82.2339 11.9735 82.4657 11.0316 82.6416 10.0818C82.735 9.57736 82.8399 9.07287 82.8933 8.56355C82.9722 7.81196 83.1226 7.0797 83.2888 6.3414C83.5291 5.27564 83.6595 4.17846 83.7529 3.08733C83.8251 2.24571 84.1497 1.53702 84.618 0.868196C84.8552 0.529859 85.2185 0.428962 85.6013 0.421108C86.3487 0.406608 87.0967 0.416879 87.844 0.416879C87.844 0.403587 87.8446 0.390899 87.8446 0.378212ZM89.0567 18.3844C89.0712 18.3808 89.0864 18.3777 89.101 18.3741C89.0306 18.0219 88.9572 17.6703 88.8899 17.3174C88.794 16.8166 88.7006 16.3145 88.609 15.8124C88.5696 15.5961 88.5659 15.3678 88.4925 15.1635C88.3548 14.7793 87.9526 14.6977 87.6736 14.998C87.5407 15.1412 87.4412 15.3285 87.3715 15.5128C87.0014 16.4867 86.9353 17.5108 86.9226 18.5366C86.9116 19.3638 87.2744 19.664 88.0982 19.5686C88.1983 19.5571 88.2984 19.5408 88.3955 19.5154C88.7976 19.4103 88.9887 19.191 89.0379 18.7759C89.0524 18.646 89.0506 18.5149 89.0567 18.3844Z" fill="#1A1A1A"/>
<path d="M49.8114 0.236227C51.621 0.236227 53.4306 0.232602 55.2401 0.239852C55.5726 0.241061 55.9068 0.271874 56.2362 0.318395C56.6348 0.374583 56.892 0.605377 56.9866 1.00594C57.2669 2.19133 57.4192 3.37551 57.1237 4.58809C56.9787 5.1832 56.9181 5.79764 56.8065 6.40121C56.7737 6.57763 56.7324 6.76674 56.639 6.91536C56.2963 7.46154 56.1598 8.08384 55.9323 8.67351C55.5859 9.57071 55.1637 10.4383 54.7742 11.3186C54.7172 11.4473 54.6596 11.576 54.608 11.7065C54.335 12.3982 54.0742 13.0955 53.7879 13.7818C53.5573 14.3334 53.598 14.8361 53.9608 15.317C54.3915 15.8879 54.3678 16.2511 53.8461 16.7386C53.6653 16.9078 53.4512 17.0594 53.2255 17.1609C52.5437 17.4679 52.1421 17.9542 51.9292 18.6871C51.6895 19.5112 51.3607 20.3183 50.984 21.0911C50.739 21.5932 50.5109 22.0831 50.3926 22.6305C50.341 22.871 50.1893 23.0891 50.1044 23.3247C49.8933 23.9083 49.6501 24.4859 49.5033 25.0859C49.3437 25.7396 49.6264 26.1196 50.2955 26.2102C50.8233 26.2815 51.3601 26.3075 51.8934 26.3124C53.046 26.3232 54.1979 26.3009 55.3505 26.3039C56.5062 26.3069 57.1856 26.9334 57.2517 28.0886C57.2893 28.7508 57.2893 29.4184 57.259 30.0812C57.219 30.9621 56.6196 31.5542 55.7424 31.6128C55.1679 31.6514 54.5923 31.6798 54.0166 31.681C50.9027 31.6877 47.7889 31.6859 44.6751 31.681C44.3839 31.6804 44.0867 31.6629 43.8022 31.6061C42.999 31.446 42.584 30.9319 42.5816 30.115C42.5798 29.4806 42.5968 28.8469 42.5992 28.2125C42.6004 27.83 42.5956 27.447 42.5834 27.0652C42.5695 26.6235 42.6392 26.206 42.8692 25.8175C42.9711 25.6459 43.036 25.452 43.1088 25.2647C43.3162 24.7312 43.5207 24.1965 43.7227 23.6606C44.1121 22.6269 44.4974 21.5913 44.8886 20.5588C44.9851 20.3051 45.1028 20.0592 45.2059 19.8078C45.4886 19.1197 45.7937 18.4394 46.0352 17.7373C46.1079 17.5259 46.0327 17.2443 45.9666 17.0117C45.9047 16.7936 45.7525 16.6021 45.6609 16.39C45.3927 15.7713 45.6075 15.1738 46.2305 14.9152C47.229 14.5008 47.7756 13.7323 48.0564 12.7323C48.0752 12.6647 48.091 12.5946 48.1177 12.5299C48.5393 11.5198 48.964 10.5108 49.385 9.50002C49.4778 9.27708 49.5542 9.0481 49.6452 8.82455C49.8041 8.43486 49.9788 8.05121 50.1263 7.65669C50.2312 7.37695 50.344 7.08937 50.3774 6.79695C50.4247 6.37946 50.2488 6.09973 49.8424 5.9946C49.3571 5.86894 48.8523 5.76321 48.3537 5.75354C46.9797 5.72696 45.6038 5.73783 44.2298 5.76623C43.1761 5.78798 42.6119 5.29074 42.5883 4.25036C42.5859 4.14946 42.5998 4.04312 42.5719 3.94948C42.3232 3.11632 42.51 2.28981 42.6047 1.4627C42.6932 0.689357 43.0821 0.29302 43.8646 0.267644C44.925 0.233206 45.9872 0.245894 47.0482 0.242269C47.9685 0.239248 48.8881 0.241665 49.8084 0.241665C49.8114 0.241061 49.8114 0.238644 49.8114 0.236227Z" fill="#1A1A1A"/>
<path d="M68.4143 0.235629C70.2239 0.235629 72.0328 0.232004 73.8424 0.23865C74.1645 0.239858 74.4879 0.272483 74.8082 0.31115C75.1776 0.355859 75.4724 0.544361 75.5762 0.906865C75.7029 1.34791 75.8334 1.80044 75.8631 2.25417C75.9535 3.63833 75.834 5.0092 75.467 6.35288C75.4457 6.43022 75.4433 6.5148 75.413 6.58791C75.0338 7.50625 74.651 8.42339 74.2689 9.34052C74.261 9.35865 74.244 9.37315 74.2367 9.39188C73.8479 10.367 73.4608 11.3434 73.0702 12.3179C72.9215 12.6882 72.8045 13.0791 72.6025 13.4193C72.1487 14.1836 72.1469 14.5944 72.6819 15.291C73.0138 15.723 73.0338 16.1592 72.6558 16.5465C72.3883 16.8214 72.0674 17.077 71.721 17.2359C71.1817 17.4836 70.8499 17.8539 70.6764 18.411C70.569 18.7541 70.3992 19.078 70.2609 19.4115C70.142 19.6991 70.0297 19.9891 69.9133 20.2773C69.7331 20.7225 69.5529 21.1672 69.371 21.6113C69.3248 21.7231 69.249 21.827 69.2254 21.9424C69.0646 22.7302 68.7103 23.4407 68.3749 24.1633C68.2287 24.4781 68.148 24.8315 68.0904 25.1765C67.9951 25.7444 68.2505 26.0973 68.8135 26.1994C69.1799 26.2658 69.5542 26.3262 69.9254 26.3281C71.2194 26.3341 72.5133 26.3238 73.8066 26.2997C74.5485 26.2858 75.2134 26.4308 75.5962 27.128C75.7454 27.3999 75.8394 27.7297 75.8588 28.0391C75.8995 28.6807 75.8849 29.3272 75.8716 29.9712C75.851 30.982 75.2734 31.5813 74.2713 31.6538C74.0396 31.6708 73.8072 31.6835 73.5749 31.6841C70.1383 31.6859 66.7012 31.6841 63.2646 31.6865C62.7265 31.6871 62.22 31.594 61.7766 31.2654C61.3847 30.9754 61.1754 30.6008 61.1827 30.106C61.1954 29.2504 61.1499 28.3907 61.2203 27.5406C61.2749 26.8869 61.4114 26.2266 61.6152 25.6024C61.9731 24.5077 62.3947 23.4323 62.82 22.3605C63.1712 21.4753 63.5679 20.6077 63.9386 19.7305C64.0363 19.4997 64.1097 19.258 64.1994 19.0236C64.3353 18.6677 64.45 18.301 64.621 17.9627C64.8194 17.5706 64.82 17.2147 64.5701 16.8552C64.4894 16.7392 64.413 16.6208 64.3426 16.4982C64.0035 15.9067 64.1582 15.2898 64.7715 14.9907C65.3011 14.7328 65.7736 14.418 66.1079 13.9359C66.3105 13.644 66.4773 13.3226 66.626 12.9988C66.8055 12.6079 66.9517 12.2019 67.107 11.8001C67.2374 11.4636 67.3654 11.1252 67.4849 10.7845C67.5583 10.5761 67.5941 10.3531 67.6809 10.1507C68.0455 9.30427 68.421 8.46266 68.7959 7.62044C69.3085 6.46949 69.0088 5.93419 67.7537 5.78798C67.4534 5.75294 67.1489 5.74267 66.8462 5.74388C65.4618 5.74811 64.0757 5.72756 62.6932 5.78315C61.941 5.81336 61.1402 5.00437 61.1724 4.32709C61.213 3.47339 61.1875 2.61668 61.2033 1.76117C61.2239 0.657946 61.5922 0.28215 62.7126 0.254962C63.662 0.232004 64.6126 0.244691 65.5631 0.243483C66.5131 0.242275 67.4637 0.243483 68.4137 0.243483C68.4143 0.240462 68.4143 0.238046 68.4143 0.235629Z" fill="#1A1A1A"/>
<path d="M151.657 7.66515C151.657 9.48734 151.657 11.3101 151.658 13.1323C151.658 13.2731 151.663 13.4145 151.676 13.5546C151.734 14.1661 152.034 14.5944 152.599 14.8711C152.927 15.0318 153.211 15.2802 153.515 15.4886C153.572 15.5273 153.629 15.5695 153.691 15.5985C153.791 15.6451 153.98 15.6723 153.985 15.7236C154.013 15.9707 153.994 16.2239 153.984 16.474C153.983 16.4957 153.92 16.5362 153.89 16.5326C153.61 16.497 153.495 16.7302 153.314 16.8637C153.096 17.025 152.859 17.1615 152.625 17.2987C152.002 17.6618 151.645 18.1687 151.648 18.9161C151.661 22.1381 151.671 25.3602 151.665 28.5822C151.664 29.2849 151.612 29.9888 151.552 30.6896C151.49 31.4309 151.246 31.6907 150.509 31.7233C149.481 31.7692 148.449 31.7983 147.422 31.7614C146.562 31.7306 146.242 31.4025 146.102 30.5488C146.028 30.1041 145.98 29.6492 145.979 29.1991C145.976 25.7656 145.983 22.3321 145.999 18.8985C146.003 18.1125 145.735 17.5265 144.958 17.2407C144.882 17.2129 144.809 17.1754 144.74 17.135C144.319 16.8915 144.032 16.5392 144.036 16.0462C144.04 15.5683 144.356 15.2584 144.757 15.0397C144.951 14.9334 145.16 14.853 145.363 14.763C145.664 14.6301 145.856 14.4029 145.904 14.0827C145.951 13.7655 145.988 13.4429 145.988 13.1226C145.987 9.67886 145.966 6.23568 145.985 2.79189C145.988 2.23786 146.122 1.67598 146.263 1.13464C146.397 0.619281 146.736 0.389695 147.271 0.383049C148.343 0.370966 149.414 0.368549 150.486 0.385466C151.14 0.395737 151.445 0.656136 151.576 1.29898C151.641 1.61194 151.669 1.93759 151.671 2.2578C151.68 4.06005 151.675 5.8623 151.675 7.66455C151.669 7.66515 151.663 7.66515 151.657 7.66515Z" fill="#1A1A1A"/>
</svg>
