<svg width="29" height="15" viewBox="0 0 29 15" fill="none" xmlns="http://www.w3.org/2000/svg">
<path fill-rule="evenodd" clip-rule="evenodd" d="M6.94018 14.3139L0.44292 8.17962C0.195311 7.94563 0.0515865 7.66797 0.0117459 7.38787C0.00402396 7.34308 0 7.29703 0 7.25004C0 7.24277 9.62153e-05 7.23552 0.000287443 7.2283C-0.000168489 6.89466 0.147376 6.56871 0.44292 6.32061L6.94018 0.186355C7.07112 0.0622697 7.26801 0 7.39942 0C7.53084 0 7.72773 0.0622697 7.85915 0.186355C7.92129 0.242261 7.97077 0.3095 8.00457 0.383997C8.03837 0.458494 8.05581 0.538696 8.05581 0.619743C8.05581 0.70079 8.03837 0.780992 8.00457 0.855489C7.97077 0.929986 7.92129 0.997226 7.85915 1.05313L2.1496 6.44448H28.1944C28.6393 6.44448 29 6.80514 29 7.25004C29 7.69493 28.6393 8.05559 28.1944 8.05559H2.1495L7.85915 13.4466C7.92131 13.5026 7.97079 13.5699 8.0046 13.6444C8.03841 13.7189 8.05584 13.7992 8.05584 13.8803C8.05584 13.9613 8.03841 14.0416 8.0046 14.1161C7.97079 14.1906 7.92131 14.2579 7.85915 14.3139C7.59631 14.562 7.20254 14.562 6.94018 14.3139Z" fill="#666666"/>
</svg>
