<svg width="28" height="24" viewBox="0 0 28 24" fill="none" xmlns="http://www.w3.org/2000/svg">
<path d="M25.6866 2.25736C24.193 0.803231 22.2158 0.0138488 20.1247 0.0138488C18.0194 0.0138488 16.0422 0.81708 14.5628 2.25736L13.9938 2.81131L13.4248 2.25736C11.9454 0.803231 9.96812 0 7.86283 0C5.75755 0 3.78028 0.803231 2.28667 2.25736C-0.771689 5.2487 -0.757464 10.1096 2.30089 13.101L13.126 23.6399C13.3679 23.8754 13.6808 24 14.008 24C14.3352 24 14.6481 23.8754 14.8899 23.6399L25.7151 13.101C28.7735 10.0958 28.7592 5.23485 25.6866 2.25736Z" fill="#FCA500"/>
</svg>
