<svg width="77" height="66" viewBox="0 0 77 66" fill="none" xmlns="http://www.w3.org/2000/svg">
<path id="Union" fill-rule="evenodd" clip-rule="evenodd" d="M37.8182 66C36.3636 66 34.3636 65.2727 33.6364 64C30.7274 61.4546 17.4554 48.1827 6.36468 37.092L6.36402 37.0913L6.36364 37.0909C2.18182 32.3636 0 27.0909 0 21.8182C0 16.3636 2.36364 10.5455 6.36364 6.54545C10.5455 2.36364 16 0.181818 21.6364 0.181818C27.2727 0.181818 32.7273 2.54545 36.9091 6.54545L37.8182 7.45455L38.7273 6.54545C42.9091 2.36364 48.3636 0 54.1818 0C55.2727 0 56 0.727272 56 1.81818C56 2.90909 55.2727 3.63636 54.1818 3.63636C49.4545 3.63636 44.9091 5.45455 41.4545 8.90909L41.4544 8.90923L41.4543 8.90938C40.5453 9.81834 39.8181 10.5455 39.4545 11.0909C38.9091 12.3636 36.7273 12.3636 36.1818 11.0909C35.8182 10.3636 35.0909 9.63636 34.1818 8.90909C30.7273 5.45455 26.1818 3.63636 21.4545 3.63636C16.7273 3.63636 12.1818 5.45455 8.72727 8.90909C5.45455 12.1818 3.45455 17.0909 3.45455 21.6364C3.45455 26 5.45455 30.5455 8.90909 34.3636C24.3636 49.8182 35.0909 60.3636 36.1818 61.2727C36.3636 61.4545 36.5455 61.6364 36.7273 62C36.9091 62.1818 37.4545 62.3636 37.8182 62.3636C38.1818 62.3636 38.7273 62.1818 38.9091 62C39.0909 61.6364 39.2727 61.4545 39.4545 61.2727C40.7273 60.3636 54 47.0909 66.7273 34.3636C67.4546 33.6364 68.5455 33.6364 69.2727 34.3636C70 35.0909 70 36.1818 69.2727 36.9091C60.1818 46 45.0909 61.0909 42 63.8182C41.2727 65.0909 39.2727 66 37.8182 66ZM63.4551 16.9091H55.6365C54.5456 16.9091 53.8184 16.1818 53.8184 15.0909C53.8184 14 54.5456 13.2727 55.6365 13.2727H63.4551V5.63636C63.4551 4.54545 64.1824 3.81818 65.2733 3.81818C66.3642 3.81818 67.0914 4.54545 67.0914 5.63636V13.2727H74.7274C75.8184 13.2727 76.5456 14 76.5456 15.0909C76.5456 16.1818 75.8184 16.9091 74.7274 16.9091H67.0914V24.7273C67.0914 25.6364 66.1824 26.5454 65.2733 26.5454C64.1824 26.5454 63.4551 25.8182 63.4551 24.7273V16.9091Z" fill="#1A1A1A"/>
</svg>
