<svg width="76" height="66" viewBox="0 0 76 66" fill="none" xmlns="http://www.w3.org/2000/svg">
<path fill-rule="evenodd" clip-rule="evenodd" d="M33.6364 64C34.3636 65.2727 36.3636 66 37.8182 66C39.2727 66 41.2727 65.0909 42 63.8182C45.0909 61.0909 60.1818 46 69.2727 36.9091C70 36.1818 70 35.0909 69.2727 34.3636C68.5455 33.6364 67.4546 33.6364 66.7273 34.3636C54 47.0909 40.7273 60.3636 39.4545 61.2727C39.2727 61.4545 39.0909 61.6364 38.9091 62C38.7273 62.1818 38.1818 62.3636 37.8182 62.3636C37.4545 62.3636 36.9091 62.1818 36.7273 62C36.5455 61.6364 36.3636 61.4545 36.1818 61.2727C35.0909 60.3636 24.3636 49.8182 8.90909 34.3636C5.45455 30.5455 3.45455 26 3.45455 21.6364C3.45455 17.0909 5.45455 12.1818 8.72727 8.90909C12.1818 5.45455 16.7273 3.63636 21.4545 3.63636C26.1818 3.63636 30.7273 5.45455 34.1818 8.90909C35.0909 9.63636 35.8182 10.3636 36.1818 11.0909C36.7273 12.3636 38.9091 12.3636 39.4545 11.0909C39.8182 10.5455 40.5454 9.81825 41.4544 8.90923L41.4545 8.90909C44.9091 5.45455 49.4545 3.63636 54.1818 3.63636C55.2727 3.63636 56 2.90909 56 1.81818C56 0.727272 55.2727 0 54.1818 0C48.3636 0 42.9091 2.36364 38.7273 6.54545L37.8182 7.45455L36.9091 6.54545C32.7273 2.54545 27.2727 0.181818 21.6364 0.181818C16 0.181818 10.5455 2.36364 6.36364 6.54545C2.36364 10.5455 0 16.3636 0 21.8182C0 27.0909 2.18182 32.3636 6.36364 37.0909L6.36402 37.0913C17.4549 48.1821 30.7273 61.4546 33.6364 64ZM58.1829 25.7245C58.4862 26.0056 58.8898 26.1621 59.3087 26.1636L59.3087 26.1636C59.3408 26.1637 59.3731 26.1629 59.4053 26.1612C59.8582 26.1371 60.28 25.9327 60.5695 25.5972L75.1883 8.6551C75.7627 7.98937 75.6665 7.0022 74.9733 6.45023C74.2801 5.89829 73.2526 5.99043 72.6782 6.65612L59.1809 22.2986L51.7956 15.4543C51.1476 14.8538 50.1157 14.8715 49.4908 15.4938C48.8659 16.116 48.8846 17.1074 49.5326 17.7079L58.1829 25.7245Z" fill="#1A1A1A"/>
</svg>
