<svg width="22" height="22" viewBox="0 0 22 22" fill="none" xmlns="http://www.w3.org/2000/svg">
<path id="Vector" d="M21.2156 3.53571C20.7827 3.53571 20.4313 3.88771 20.4313 4.32143V5.42693C18.5237 2.18271 15.0121 0 10.9812 0C4.91643 0 0 4.92486 0 11C0 17.0751 4.91643 22 10.9812 22C14.6512 22 17.8836 20.1842 19.8759 17.413C19.8822 17.4067 19.8861 17.3996 19.8916 17.3934C19.9159 17.3588 19.9457 17.3281 19.9701 17.2936C19.9669 17.292 19.9653 17.2896 19.9622 17.2881C20.0485 17.1608 20.1112 17.0162 20.1112 16.8512C20.112 16.4128 19.7575 16.0584 19.3214 16.0584C19.0123 16.0584 18.7511 16.2407 18.6209 16.5H18.6154C16.9063 18.876 14.1281 20.4286 10.9812 20.4286C5.78316 20.4286 1.56874 16.2069 1.56874 11C1.56874 5.79307 5.78316 1.57143 10.9812 1.57143C14.6222 1.57143 17.7668 3.64886 19.3316 6.67857L18.0782 6.67857C17.6452 6.67857 17.2938 7.03057 17.2938 7.46429C17.2938 7.898 17.6452 8.25 18.0782 8.25H21.2156C21.6486 8.25 22 7.898 22 7.46429V4.32143C22 3.88771 21.6486 3.53571 21.2156 3.53571Z" fill="#666666"/>
</svg>
