<svg width="23" height="20" viewBox="0 0 23 20" fill="none" xmlns="http://www.w3.org/2000/svg">
<path d="M21.0997 1.88113C19.8728 0.66936 18.2487 0.0115407 16.531 0.0115407C14.8017 0.0115407 13.1775 0.6809 11.9623 1.88113L11.4949 2.34276L11.0275 1.88113C9.81228 0.66936 8.1881 0 6.45876 0C4.72941 0 3.10523 0.66936 1.87833 1.88113C-0.633887 4.37392 -0.622203 8.4247 1.89002 10.9175L10.7821 19.6999C10.9808 19.8961 11.2378 20 11.5066 20C11.7753 20 12.0324 19.8961 12.231 19.6999L21.1231 10.9175C23.6353 8.41316 23.6236 4.36238 21.0997 1.88113ZM20.1416 9.93653L11.5183 18.4535L2.89491 9.93653C0.920184 7.98615 0.908499 4.81246 2.87154 2.85055C3.82969 1.90421 5.10332 1.38488 6.45876 1.38488C7.81419 1.38488 9.08782 1.90421 10.046 2.85055L11.4949 4.28159L12.9438 2.85055C13.9019 1.90421 15.1756 1.38488 16.531 1.38488C17.8864 1.38488 19.1601 1.90421 20.1182 2.85055C22.0813 4.80092 22.0929 7.97461 20.1416 9.93653Z" fill="#1A1A1A"/>
</svg>
