<svg width="50" height="49" viewBox="0 0 50 49" fill="none" xmlns="http://www.w3.org/2000/svg">
<path id="Vector" d="M46.9369 9.11593H41.6216C43.2432 7.73369 44.0259 5.6631 43.4572 3.70354C43.0518 2.31574 42.0495 1.19441 40.625 0.550471C39.2511 -0.0657088 37.6408 -0.171181 36.098 0.267362C34.7973 0.633739 32.8604 1.96602 30.1746 4.33637C29.8198 4.65279 29.4707 4.96365 29.1498 5.25786C28.9471 4.63058 28.3502 4.17539 27.6464 4.17539H22.8604C22.1115 4.17539 21.4809 4.6972 21.3232 5.39109C20.9572 5.05247 20.5631 4.6972 20.152 4.33082C17.4606 1.96602 15.5236 0.633739 14.2286 0.267362C12.6802 -0.171181 11.0698 -0.0657088 9.69595 0.556022C8.2714 1.19996 7.26351 2.3213 6.86374 3.70909C6.29504 5.66865 7.0777 7.73369 8.69932 9.12148H3.05743C1.36824 9.12148 0 10.476 0 12.1358V16.7599C0 18.3808 1.30068 19.7076 2.92793 19.7742V45.4539C2.92793 47.0915 4.27928 48.4238 5.94032 48.4238H43.7218C45.3829 48.4238 46.7342 47.0915 46.7342 45.4539V19.7742H46.9426C48.6318 19.7742 50 18.4197 50 16.7599V12.1358C50 10.4704 48.6261 9.11593 46.9369 9.11593ZM48.1982 16.7599C48.1982 17.4427 47.6351 17.9978 46.9426 17.9978H31.1937V10.8923H46.9426C47.6351 10.8923 48.1982 11.4474 48.1982 12.1302V16.7599ZM1.8018 12.1358C1.8018 11.453 2.36487 10.8979 3.05743 10.8979H18.6937V18.0034H3.05743C2.36487 18.0034 1.8018 17.4482 1.8018 16.7654V12.1358ZM23.0856 5.95176H27.4212V9.11593H23.0856V5.95176ZM29.3919 16.5545V17.9978H20.4955V10.8923H29.3919V16.5545ZM36.5935 1.97712C37.7252 1.65515 38.8908 1.72732 39.8761 2.17141C40.8164 2.59885 41.4752 3.31496 41.7286 4.19759C42.2748 6.06834 40.8559 8.12227 38.5642 8.76621C37.1791 9.15479 33.795 8.68849 30.9854 8.16113L36.4358 6.70117C36.9144 6.57349 37.2016 6.08499 37.0664 5.61314C36.9369 5.14129 36.4414 4.85818 35.9628 4.99141L30.4786 6.46247C32.5845 4.53621 35.2083 2.36571 36.5935 1.97712ZM8.59234 4.19759C8.85135 3.31496 9.51013 2.5933 10.4448 2.17141C11.0248 1.91051 11.661 1.77728 12.3198 1.77728C12.7872 1.77728 13.2601 1.84389 13.7275 1.97712C15.1351 2.37681 17.8266 4.61948 19.9493 6.56239L14.0878 4.98586C13.6092 4.85818 13.1137 5.13574 12.9842 5.60759C12.8547 6.07944 13.1363 6.56794 13.6149 6.69562L19.1779 8.18888C17.1284 8.56636 14.8086 8.91054 13.1869 8.91054C12.607 8.91054 12.1171 8.86613 11.7568 8.76621C9.46509 8.12227 8.04617 6.06834 8.59234 4.19759ZM4.72973 45.4539V19.7742H19.8198V46.6419H5.93468C5.27027 46.6419 4.72973 46.1089 4.72973 45.4539ZM21.6216 19.7742H28.2658V46.6419H21.6216V19.7742ZM44.9324 45.4539C44.9324 46.1089 44.3919 46.6474 43.7218 46.6474H30.0676V19.7797H44.9324V45.4539Z" fill="#FCA500"/>
</svg>
