<svg width="21" height="22" viewBox="0 0 21 22" fill="none" xmlns="http://www.w3.org/2000/svg">
<path d="M10.5 0C7.6005 0 5.25 2.3505 5.25 5.25C5.25 8.1495 7.6005 10.5 10.5 10.5C13.3995 10.5 15.75 8.1495 15.75 5.25C15.75 2.3505 13.3995 0 10.5 0ZM10.5 9C8.42925 9 6.75 7.32075 6.75 5.25C6.75 3.17925 8.42925 1.5 10.5 1.5C12.5708 1.5 14.25 3.17925 14.25 5.25C14.25 7.32075 12.5715 9 10.5 9ZM20.9842 18.8018C20.583 13.3688 16.035 9.06 10.5 9.06C4.722 9.06 0.0375 13.7273 0.00299996 19.4977C0.00299996 19.5075 0 19.518 0 19.5285C0 19.5322 0.000749946 19.5352 0.000749946 19.539C0.000749946 19.5457 0 19.5525 0 19.56L0.00375009 19.563C0.0225001 20.3752 0.68325 21.0285 1.5 21.0285C1.52775 21.0285 1.554 21.0217 1.58175 21.0203L1.59075 21.0285H1.6305H17.31C17.733 21.0285 18.0758 20.6925 18.0758 20.2785C18.0758 19.8645 17.733 19.5285 17.31 19.5285H2.235C1.5 19.5285 1.29675 19.56 1.63875 18.0427C2.361 13.7962 6.048 10.56 10.5 10.56C15.207 10.56 19.0635 14.175 19.4603 18.7785H19.4557C19.4767 19.0185 19.4955 19.26 19.497 19.5052H19.5V20.3302H19.5105C19.5382 20.7188 19.854 21.0285 20.25 21.0285C20.646 21.0285 20.9618 20.7188 20.9895 20.3302H21L20.9805 18.8025" fill="#1A1A1A"/>
</svg>
