<svg width="20" height="20" viewBox="0 0 20 20" fill="none" xmlns="http://www.w3.org/2000/svg">
<path fill-rule="evenodd" clip-rule="evenodd" d="M0 9.40186C0 14.5838 4.25973 18.8013 9.49908 18.8013C11.9125 18.8013 14.1181 17.9069 15.7952 16.4354L18.863 19.0661C19.1478 19.3115 19.5848 19.2799 19.8328 18.9981C20.0808 18.7138 20.0489 18.2814 19.7641 18.0384L16.7574 15.4602C18.155 13.8232 18.9982 11.7085 18.9982 9.40186C18.9982 4.21747 14.7384 0 9.49908 0C4.25973 0 0 4.2199 0 9.40186ZM15.3844 14.9371C16.771 13.4943 17.6233 11.5443 17.6233 9.40186C17.6233 4.97059 13.9773 1.3629 9.49908 1.3629C5.02084 1.3629 1.3749 4.97059 1.3749 9.40186C1.3749 13.8331 5.02084 17.4408 9.49908 17.4408C11.7072 17.4408 13.713 16.5637 15.1791 15.1432C15.1975 15.1143 15.2183 15.0865 15.2416 15.06C15.2842 15.0116 15.3324 14.9706 15.3844 14.9371Z" fill="#1A1A1A"/>
</svg>
