<svg width="44" height="45" viewBox="0 0 44 45" fill="none" xmlns="http://www.w3.org/2000/svg">
<path id="Vector" d="M43.9817 41.2963L40.6396 12.3205C40.5616 11.6442 40.2378 11.0202 39.7297 10.5673C39.2216 10.1143 38.5648 9.86407 37.8842 9.86411H31.8614V6.16507C31.8614 2.76581 29.0963 4.86677e-06 25.6979 4.86677e-06C24.3638 -0.00167562 23.0655 0.431889 21.9999 1.23494C20.9329 0.434807 19.6354 0.00218145 18.3018 0.00193149C14.9035 0.00193149 12.1384 2.76773 12.1384 6.16699V9.86603H6.1156C5.43501 9.86599 4.77817 10.1163 4.27008 10.5692C3.762 11.0221 3.43815 11.6461 3.36016 12.3224L0.0180463 41.2982C-0.0264665 41.6866 0.0115918 42.0801 0.129726 42.4527C0.24786 42.8254 0.443403 43.1689 0.703535 43.4606C0.963667 43.7524 1.28251 43.9859 1.63917 44.1458C1.99583 44.3057 2.38225 44.3884 2.7731 44.3885H41.2267C41.6177 44.3884 42.0043 44.3057 42.3611 44.1457C42.7179 43.9857 43.0369 43.752 43.297 43.46C43.5572 43.168 43.7527 42.8243 43.8707 42.4514C43.9887 42.0785 44.0265 41.6848 43.9817 41.2963ZM29.396 6.16507V9.86411H21.9999V6.16507C21.9999 5.18402 22.3895 4.24316 23.083 3.54945C23.7765 2.85575 24.7172 2.46603 25.6979 2.46603C26.6787 2.46603 27.6193 2.85575 28.3129 3.54945C29.0064 4.24316 29.396 5.18402 29.396 6.16507ZM18.3018 2.46603C19.0336 2.46627 19.7488 2.68364 20.357 3.09063C19.817 4.02514 19.5333 5.0857 19.5345 6.16507V9.86411H14.6038V6.16507C14.6049 5.18437 14.9949 4.24415 15.6882 3.55069C16.3814 2.85723 17.3214 2.46715 18.3018 2.46603ZM2.54312 41.8192C2.51359 41.7871 2.4914 41.749 2.4781 41.7075C2.46479 41.6659 2.46069 41.622 2.46608 41.5787L5.80858 12.6029C5.81731 12.5275 5.8536 12.4579 5.91047 12.4075C5.96735 12.3572 6.0408 12.3296 6.11675 12.3301H10.7555L7.41415 41.2963C7.39046 41.5043 7.39046 41.7144 7.41415 41.9224H2.7731C2.72958 41.9229 2.68649 41.9138 2.64679 41.896C2.60709 41.8782 2.57172 41.852 2.54312 41.8192ZM41.4567 41.8192C41.4279 41.8521 41.3924 41.8784 41.3525 41.8963C41.3125 41.9141 41.2692 41.923 41.2255 41.9224H10.1692C10.1257 41.9225 10.0827 41.9133 10.0431 41.8955C10.0034 41.8777 9.96795 41.8517 9.93902 41.8193C9.9101 41.7868 9.88837 41.7486 9.87526 41.7071C9.86215 41.6657 9.85796 41.6219 9.86296 41.5787L13.2055 12.6029C13.2142 12.5278 13.2502 12.4585 13.3066 12.4082C13.3631 12.3579 13.4361 12.3301 13.5117 12.3301H19.5345V15.1279C19.0645 15.3993 18.6972 15.8183 18.4895 16.3198C18.2818 16.8214 18.2454 17.3775 18.3858 17.9018C18.5263 18.4262 18.8358 18.8895 19.2664 19.22C19.6969 19.5505 20.2245 19.7296 20.7672 19.7296C21.3099 19.7296 21.8375 19.5505 22.268 19.22C22.6986 18.8895 23.0081 18.4262 23.1486 17.9018C23.289 17.3775 23.2526 16.8214 23.0449 16.3198C22.8372 15.8183 22.4699 15.3993 21.9999 15.1279V12.3301H29.396V15.1279C28.926 15.3993 28.5587 15.8183 28.351 16.3198C28.1433 16.8214 28.1068 17.3775 28.2473 17.9018C28.3878 18.4262 28.6973 18.8895 29.1279 19.22C29.5584 19.5505 30.086 19.7296 30.6287 19.7296C31.1714 19.7296 31.6989 19.5505 32.1295 19.22C32.5601 18.8895 32.8696 18.4262 33.01 17.9018C33.1505 17.3775 33.1141 16.8214 32.9064 16.3198C32.6987 15.8183 32.3314 15.3993 31.8614 15.1279V12.3301H37.8842C37.9601 12.3296 38.0336 12.3572 38.0905 12.4075C38.1473 12.4579 38.1836 12.5275 38.1924 12.6029L41.5349 41.5787C41.5401 41.6221 41.5358 41.6661 41.5223 41.7076C41.5088 41.7491 41.4864 41.7872 41.4567 41.8192Z" fill="#FCA500"/>
</svg>
