<svg width="58" height="46" viewBox="0 0 58 46" fill="none" xmlns="http://www.w3.org/2000/svg">
<path id="Union" fill-rule="evenodd" clip-rule="evenodd" d="M33.7887 0H5.06009C2.52805 0 0.475367 2.01917 0.475433 4.51002V35.4256C0.475433 37.9164 2.52805 39.9356 5.06016 39.9356H6.49795C6.34792 39.286 6.27233 38.6219 6.2726 37.9558C6.2726 37.8005 6.27671 37.6461 6.28473 37.4927H5.06009C3.90136 37.4927 2.95868 36.5654 2.95868 35.4256V4.51002C2.95868 3.37017 3.90136 2.44285 5.06009 2.44285H33.7887C34.9474 2.44285 35.8901 3.37017 35.8901 4.51002V14.2431H38.3735V14.2431H44.9993C47.6795 14.2431 50.1992 15.2697 52.0944 17.1341C53.9895 18.9983 55.0332 21.477 55.0332 24.1135V35.4255C55.0332 36.5652 54.0906 37.4925 52.9318 37.4925H49.523C49.531 37.646 49.5352 37.8004 49.5352 37.9557C49.5354 38.6218 49.4598 39.2859 49.3099 39.9355H52.9319C55.4639 39.9355 57.5166 37.9163 57.5166 35.4255V24.1135C57.5166 17.313 51.9125 11.8001 44.9993 11.8001H38.3735V4.51002C38.3735 2.01924 36.3209 0 33.7887 0ZM35.8902 26.5744H49.4496V24.1315H38.3735V17.1479H35.8902V26.5744ZM32.8713 39.8649C33.7347 43.1965 36.8055 45.6603 40.4612 45.6603C44.7868 45.6603 48.2935 42.2108 48.2935 37.9557C48.2935 33.7006 44.7869 30.251 40.4612 30.251C36.2936 30.251 32.8862 33.4531 32.6428 37.4927H23.1693C22.926 33.4531 19.5186 30.251 15.351 30.251C11.0253 30.251 7.51874 33.7006 7.51874 37.9557C7.51874 42.2108 11.0254 45.6603 15.351 45.6603C18.9808 45.6603 22.0339 43.2313 22.9222 39.9356H32.8713V39.8649ZM15.351 32.694C12.4016 32.694 10.0021 35.0543 10.0021 37.9557C10.0021 40.857 12.4016 43.2174 15.351 43.2174C18.3004 43.2174 20.6999 40.857 20.6999 37.9557C20.6999 35.0543 18.3004 32.694 15.351 32.694ZM40.4612 32.694C37.5118 32.694 35.1123 35.0543 35.1123 37.9557C35.1123 40.857 37.5118 43.2174 40.4612 43.2174C43.4106 43.2174 45.8101 40.857 45.8101 37.9557C45.8101 35.0543 43.4106 32.694 40.4612 32.694Z" fill="#FCA500"/>
</svg>
