<svg width="23" height="22" viewBox="0 0 23 22" fill="none" xmlns="http://www.w3.org/2000/svg">
<path d="M6.85373 20.5464C6.85373 20.8947 6.9921 21.2288 7.2384 21.4751C7.4847 21.7214 7.81876 21.8598 8.16708 21.8598C8.51541 21.8598 8.84947 21.7214 9.09577 21.4751C9.34207 21.2288 9.48044 20.8947 9.48044 20.5464C9.48044 20.1981 9.34207 19.864 9.09577 19.6177C8.84947 19.3714 8.51541 19.233 8.16708 19.233C7.81876 19.233 7.4847 19.3714 7.2384 19.6177C6.9921 19.864 6.85373 20.1981 6.85373 20.5464ZM17.8553 20.5464C17.8553 20.7189 17.8892 20.8897 17.9552 21.049C18.0212 21.2084 18.118 21.3532 18.2399 21.4751C18.3619 21.5971 18.5067 21.6938 18.666 21.7598C18.8254 21.8258 18.9962 21.8598 19.1686 21.8598C19.3411 21.8598 19.5119 21.8258 19.6713 21.7598C19.8306 21.6938 19.9754 21.5971 20.0974 21.4751C20.2193 21.3532 20.3161 21.2084 20.3821 21.049C20.4481 20.8897 20.482 20.7189 20.482 20.5464C20.482 20.3739 20.4481 20.2032 20.3821 20.0438C20.3161 19.8845 20.2193 19.7397 20.0974 19.6177C19.9754 19.4958 19.8306 19.399 19.6713 19.333C19.5119 19.267 19.3411 19.233 19.1686 19.233C18.9962 19.233 18.8254 19.267 18.666 19.333C18.5067 19.399 18.3619 19.4958 18.2399 19.6177C18.118 19.7397 18.0212 19.8845 17.9552 20.0438C17.8892 20.2032 17.8553 20.3739 17.8553 20.5464ZM20.2148 17.016C20.2138 17.016 20.2128 17.016 20.2118 17.016L7.61712 17.0623L7.21618 17.0191C7.0872 16.9642 6.519 16.6454 6.3095 15.2337L4.69319 3.08489C4.69324 3.0654 4.69282 3.04584 4.69142 3.02609C4.59817 1.725 4.0528 0.987253 3.61172 0.597491C3.11639 0.15974 2.63271 0.0442221 2.54078 0.0254888C2.49115 0.0153817 2.44067 0.0101591 2.39003 0.00982135L0.784267 0C0.78263 0 0.781019 0 0.779382 0C0.351141 0 0.00263902 0.345852 1.47937e-05 0.774691C-0.00260943 1.20517 0.344229 1.55629 0.774706 1.55892L2.26877 1.56806C2.43768 1.63299 2.8839 1.87549 3.06664 2.66174C3.06775 2.68117 3.06937 2.70066 3.07199 2.72025L4.76492 15.445C4.76542 15.4486 4.76591 15.4523 4.76646 15.4559C5.16349 18.1475 6.73745 18.5188 6.91562 18.5523C6.93565 18.5561 6.95584 18.5591 6.9761 18.5612L7.49323 18.6169C7.52098 18.6199 7.54886 18.6214 7.57674 18.6214C7.57767 18.6214 7.57861 18.6214 7.57954 18.6214L20.2175 18.575C20.648 18.5734 20.9957 18.2231 20.9941 17.7926C20.9926 17.3631 20.6439 17.016 20.2148 17.016ZM22.4827 5.09408C22.6873 4.20283 22.5862 3.46114 22.1808 2.88719C21.5977 2.06175 20.64 1.97217 20.5327 1.96466C20.5138 1.96333 20.4945 1.96263 20.4758 1.96276L7.2333 2.00503C6.80283 2.00641 6.45495 2.3565 6.45633 2.787C6.4577 3.2175 6.80758 3.56603 7.23829 3.56398L20.4372 3.52183C20.4996 3.53251 20.7682 3.58944 20.9075 3.78665C20.9973 3.91383 21.0354 4.1055 21.0224 4.34555C21.0155 4.37242 21.0098 4.39991 21.0056 4.428L20.9503 4.80027C20.9425 4.83202 20.9341 4.86419 20.925 4.89687C20.9012 4.98249 20.8929 5.0687 20.898 5.1527L19.9555 11.5004C19.9446 11.5404 19.9366 11.5817 19.9321 11.6243C19.8062 12.8136 19.2799 12.9623 19.1975 12.9783L8.92468 13.9017C8.49592 13.9402 8.17958 14.319 8.21811 14.7478C8.25451 15.1529 8.59455 15.4575 8.99356 15.4575C9.01692 15.4575 9.04053 15.4565 9.06423 15.4544L19.3476 14.53C19.4721 14.519 19.9312 14.4535 20.4028 14.0746C20.6773 13.854 20.9987 13.4894 21.2254 12.9013C21.3029 12.7999 21.3567 12.6781 21.3768 12.5429L22.4827 5.09408Z" fill="#1A1A1A"/>
</svg>
