<svg width="26" height="24" viewBox="0 0 26 24" fill="none" xmlns="http://www.w3.org/2000/svg">
<path d="M1.18114 2.56673C0.529286 2.56673 0 2.17685 0 1.69646C0 1.21607 0.529286 0.826187 1.18114 0.826187H24.8189C25.4707 0.826187 26 1.21607 26 1.69646C26 2.17685 25.4707 2.56673 24.8189 2.56673H1.18114ZM1.18114 13.01C0.529286 13.01 0 12.6201 0 12.1397C0 11.6593 0.529286 11.2694 1.18114 11.2694H24.8189C25.4707 11.2694 26 11.6593 26 12.1397C26 12.6201 25.4707 13.01 24.8189 13.01H1.18114ZM1.18114 23.4532C0.529286 23.4532 0 23.0634 0 22.583C0 22.1026 0.529286 21.7127 1.18114 21.7127H24.8189C25.4707 21.7127 26 22.1026 26 22.583C26 23.0634 25.4707 23.4532 24.8189 23.4532H1.18114Z" fill="#1A1A1A"/>
</svg>
